<svg xmlns="http://www.w3.org/2000/svg" xml:space="preserve" width="29.468mm" height="12.303mm" version="1.1" style="shape-rendering:geometricPrecision; text-rendering:geometricPrecision; image-rendering:optimizeQuality; fill-rule:evenodd; clip-rule:evenodd" viewBox="0 0 2946800 1230300"
  xmlns:xlink="http://www.w3.org/1999/xlink">
  <defs>
    <style type="text/css">
      <![CDATA[
    .fil2 {fill:#ED1C3C}
    .fil1 {fill:#ED1C3C;fill-rule:nonzero}
    .fil0 {fill:white;fill-rule:nonzero}
   ]]>
    </style>
  </defs>
  <g id="Слой_x0020_1">
    <metadata id="CorelCorpID_0Corel-Layer"/>
    <path class="fil0" d="M1738500 593140l51640 0c570,0 990,0 1270,0 290,0 710,0 1270,0 20320,0 39090,-4940 56310,-14820 17210,-9880 26670,-37670 28360,-83390 2260,-64350 12560,-108520 30900,-132510 18350,-23990 46710,-35980 85100,-35980 26520,0 47130,7340 61800,22010 14680,14680 22860,30760 24560,48260 0,1130 0,2260 0,3390 0,1130 0,2260 0,3380 0,19200 -5790,35560 -17360,49110 -11570,13550 -28080,20320 -49530,20320 -20890,0 -35840,-5640 -44870,-16930 -9040,-11290 -14400,-23710 -16090,-37260 -570,-1690 -850,-3660 -850,-5920 0,-2260 0,-4520 0,-6780 0,-1690 140,-3520 430,-5500 280,-1970 700,-3810 1270,-5500 0,-570 0,-1270 0,-2120 0,-850 0,-1550 0,-2120 560,-1120 840,-2390 840,-3810 0,-1410 0,-2680 0,-3810 0,-560 0,-1270 0,-2110 0,-850 0,-1550 0,-2120 -560,-2260 -1130,-4230 -1690,-5930 -570,-1690 -1690,-2540 -3390,-2540 -560,0 -990,0 -1270,0 -280,0 -700,0 -1270,0 -2260,0 -4800,150 -7620,430 -2820,280 -5640,990 -8460,2110 -7340,3390 -14120,13270 -20330,29640 -6200,16370 -10160,47130 -11850,92290 0,3380 -140,7050 -420,11000 -280,3950 -430,7620 -430,11010 -1120,15800 -4510,30760 -10160,44870 -5640,14110 -16650,24840 -33020,32180l1700 3380c29910,570 58140,5650 84670,15240 26520,9600 47690,25120 63500,46570 9030,11850 15660,25400 19890,40640 4240,15240 7200,30760 8890,46570 1130,8460 1980,17070 2540,25820 570,8750 1130,17070 1700,24980 1120,21450 3100,39370 5920,53760 2820,14390 10160,21590 22020,21590 3950,0 8460,-1130 13540,-3390 5080,-2250 11010,-5360 17780,-9310l9320 14390c-7910,5650 -16660,10450 -26250,14400 -9600,3950 -19190,7330 -28790,10160 -6210,1690 -12420,2960 -18620,3810 -6210,840 -12140,1270 -17780,1270 -49680,0 -80860,-11860 -93560,-35560 -12700,-23710 -21590,-56450 -26670,-98220 -570,-5080 -1130,-10300 -1700,-15660 -560,-5360 -1120,-10870 -1690,-16510 -560,-2820 -990,-5650 -1270,-8470 -280,-2820 -700,-5640 -1270,-8460 -3950,-32180 -10860,-58280 -20740,-78320 -9880,-20040 -35140,-30060 -75780,-30060l-52490 0 0 261620 71120 0 0 18630 -272630 0 0 -18630 71120 0 0 -517310 -71120 0 0 -18630 272630 0 0 18630 -71120 0 0 236220z"/>
    <path class="fil0" d="M1312620 874230l-53340 -143080 -176960 0 -12700 36400c-560,1130 -1410,3530 -2540,7200 -1130,3670 -2250,7760 -3380,12280 0,0 0,140 0,420 0,280 0,710 0,1270 -1700,4520 -3110,8890 -4240,13120 -1130,4240 -1690,6920 -1690,8050 0,28220 5500,45430 16510,51640 11010,6210 28360,10160 52070,11860 1130,0 2400,140 3810,420 1410,280 2960,420 4660,420l0 18630 -186270 0 0 -18630c27090,-1130 46140,-8320 57150,-21590 11010,-13260 20460,-30340 28360,-51220 1130,-3950 2400,-7620 3810,-11010 1410,-3380 2680,-7050 3810,-11000l165100 -452970 45720 0 197280 547790 51650 0 0 18630 -256550 0 0 -18630 67740 0zm-56730 -162560l-84670 -229440 -83820 229440 168490 0z"/>
    <path class="fil1" d="M2221100 874230l0 -517310 -71120 0 0 -18630 267550 0c84100,0 144070,10730 179920,32170 35840,21450 58560,44880 68150,70280 3390,9030 5650,17640 6780,25820 1120,8190 1690,16230 1690,24130 0,42900 -15520,81140 -46570,114730 -31040,33580 -97080,50370 -198120,50370l-77890 0 0 218440 71120 0 0 18630 -272630 0 0 -18630 71120 0zm130390 -237060l42330 0c66040,0 104560,-12280 115570,-36830 11010,-24560 16510,-52360 16510,-83400 0,-570 0,-990 0,-1270 0,-280 0,-710 0,-1270l0 -60120c0,-31600 -6770,-55730 -20320,-72390 -13550,-16650 -47980,-24970 -103290,-24970l-50800 0 0 280250z"/>
    <rect class="fil2" x="-1" width="675821" height="1230310"/>
  </g>
</svg>
