<svg xmlns="http://www.w3.org/2000/svg" width="50" height="50" viewBox="0 0 50 50"><defs><clipPath id="zv52a"><path fill="#fff" d="M25 0c13.807 0 25 11.192 25 25 0 13.807-11.193 25-25 25S0 38.806 0 25C0 11.192 11.193 0 25 0z"/></clipPath></defs><g><g><g><path fill="none" stroke="#fff" stroke-miterlimit="50" stroke-width="6" d="M25 0c13.807 0 25 11.192 25 25 0 13.807-11.193 25-25 25S0 38.806 0 25C0 11.192 11.193 0 25 0z" clip-path="url(&quot;#zv52a&quot;)"/></g><g><g><path fill="#fff" d="M23 14h3v22h-3z"/></g><g><path fill="#fff" d="M17.075 25.272l8.486 8.486a1.5 1.5 0 0 1-2.122 2.121l-8.485-8.485a1.5 1.5 0 1 1 2.121-2.122z"/></g><g><path fill="#fff" d="M34.046 25.272a1.5 1.5 0 0 1 0 2.122l-8.485 8.485a1.5 1.5 0 0 1-2.122-2.121l8.486-8.486a1.5 1.5 0 0 1 2.12 0z"/></g></g></g></g></svg>